<svg data-v-0dd9719b="" version="1.0" xmlns="http://www.w3.org/2000/svg" xmlns:xlink="http://www.w3.org/1999/xlink" width="100%" height="100%" viewBox="0 60 340.000000 100.000000" preserveAspectRatio="xMidYMid meet" color-interpolation-filters="sRGB" style="margin: auto;">   <g data-v-0dd9719b="" fill="#171e60" class="icon-text-wrapper icon-svg-group iconsvg" transform="translate(38.97999576713909,95.04642868041992)"><g class="iconsvg-imagesvg" transform="translate(0,0)"><g><rect fill="#171e60" fill-opacity="0" stroke-width="2" x="0" y="0" width="60" height="59.907143926913285" class="image-rect"></rect> <svg x="0" y="0" width="60" height="59.907143926913285" filtersec="colorsb6572978094" class="image-svg-svg primary" style="overflow: visible;"><svg version="1.1" id="图层_1" xmlns="http://www.w3.org/2000/svg" xmlns:xlink="http://www.w3.org/1999/xlink" x="0px" y="0px" viewBox="0.9000000357627869 0 90.31000518798828 90.17000579833984" enable-background="new 0 0 93 90" xml:space="preserve">
<path fill="#171e60" d="M57.86,78.66c-0.15,0.2-0.23,0.36-0.35,0.48c-3.66,3.66-7.33,7.32-11.04,11.03
	c-0.31-0.24-0.56-0.41-0.77-0.62c-5.44-5.43-10.88-10.87-16.31-16.31c-0.31-0.31-0.6-0.67-0.82-1.05
	c-2.89-5.12-5.19-10.48-6.44-16.26c-0.85-3.92-1.15-7.87-0.63-11.85c0.75-5.75,3.09-10.79,6.96-15.1c3.69-4.11,8.11-7.14,13.47-8.63
	c8.09-2.25,15.7-0.98,22.68,3.62c6.36,4.18,10.59,9.99,12.18,17.47c2.08,9.79-0.35,18.4-7.26,25.7c-0.64,0.68-1.31,1.34-1.99,1.99
	c-2.78,2.67-6.06,4.04-9.95,3.79c-1.58-0.1-3.09-0.54-4.49-1.24c-5.28-2.65-8.83-6.74-10.3-12.52c-0.92-3.61-0.29-7,1.67-10.15
	c1.52-2.46,3.54-4.35,6.27-5.44c3.81-1.51,7.55-0.89,10.34,2.12c2.71,2.92,3.81,6.42,2.41,10.4c-0.06,0.16-0.11,0.32-0.2,0.62
	c0.22-0.12,0.34-0.15,0.4-0.23c1.41-1.88,2.46-3.93,2.91-6.26c0.39-1.98,0.28-3.93-0.43-5.81c-1.21-3.2-3.3-5.75-6.19-7.53
	c-3.76-2.32-7.77-2.41-11.84-0.82c-1.93,0.76-3.67,1.84-5.19,3.26c-2.24,2.1-4.12,4.46-5.46,7.24c-1.43,2.96-2.09,6.07-1.87,9.35
	c0.1,1.48,0.35,2.93,0.8,4.34c1.8,5.54,4.84,10.24,9.56,13.74c3.14,2.33,6.61,3.89,10.52,4.39c0.35,0.05,0.71,0.11,1.06,0.17
	C57.62,78.54,57.66,78.57,57.86,78.66z"></path>
<path fill="#0a5694" d="M0.9,44.77C15.91,29.76,30.81,14.85,45.65,0c0.17,0.01,0.22,0,0.26,0.02c0.04,0.01,0.09,0.03,0.12,0.06
	c4.34,4.32,8.67,8.64,13,12.96c0.19,0.19,0.36,0.39,0.54,0.6c0.02,0.03,0.01,0.09,0.03,0.23c-0.3-0.05-0.59-0.07-0.86-0.14
	c-3.69-1.05-7.45-1.43-11.27-1.23c-6.25,0.32-12.03,2.18-17.22,5.67c-8.19,5.49-13.3,13.09-15.19,22.78
	c-1.23,6.33-0.61,12.54,1.66,18.58c0.14,0.37,0.27,0.74,0.42,1.16c-0.39,0.1-0.52-0.16-0.68-0.32c-1.52-1.51-3.04-3.03-4.55-4.55
	c-3.29-3.29-6.57-6.57-9.86-9.86C1.71,45.6,1.37,45.25,0.9,44.77z"></path>
<path fill="#0a5694" d="M81.98,36.18c1.04,0.79,6.21,5.86,8.84,8.65c0.15,0.16,0.27,0.34,0.39,0.5c-0.6,0.83-5.94,6.27-7.8,7.95
	c-0.12,0.11-0.27,0.18-0.5,0.33c-0.14-0.83,0.18-1.5,0.23-2.19c0.05-0.75,0.18-1.5,0.23-2.26c0.05-0.71,0.06-1.43,0.07-2.14
	c0.01-0.76,0.01-1.52-0.03-2.27c-0.03-0.71-0.1-1.42-0.18-2.13c-0.08-0.71-0.19-1.41-0.31-2.12c-0.13-0.75-0.31-1.48-0.45-2.23
	C82.33,37.6,82.01,36.96,81.98,36.18z"></path>
</svg></svg> <!----></g></g> <g transform="translate(74,8.5335693359375)"><g data-gra="path-name" fill-rule="" class="tp-name iconsvg-namesvg"><g transform="scale(1)"><g><path d="M5.66-1.55L5.66-1.55Q5.66 1.02 3.21 1.02L3.21 1.02Q2.79 1 2.47 0.9 2.15 0.81 1.79 0.56 1.43 0.32 1.22-0.22 1.02-0.77 1.02-1.57L1.02-1.57Q1.02-1.92 0.98-2.67 0.94-3.43 0.87-4.56 0.81-5.7 0.79-6.55L0.79-6.55Q0.68-9.17 0.68-12.58L0.68-12.58Q0.68-15.3 0.79-19.81L0.79-19.81Q0.81-21.34 1.61-22.12 2.4-22.9 3.45-22.9L3.45-22.9Q3.47-22.9 3.5-22.9 3.53-22.9 3.55-22.9L3.55-22.9Q4.45-22.9 5.05-22.3 5.66-21.71 5.66-20.43L5.66-20.43Q5.66-20.11 5.6-19.71L5.6-19.71Q5.58-19.45 5.55-19.3L5.55-19.3Q7.6-22.24 10.73-22.24L10.73-22.24Q12.49-22.24 13.51-18.41L13.51-18.41Q15.96-22.24 20-22.24L20-22.24Q20.51-22.24 20.94-22 21.37-21.77 21.65-21.29 21.94-20.81 22.16-20.26 22.39-19.71 22.53-18.88 22.66-18.05 22.75-17.32 22.83-16.6 22.88-15.58 22.92-14.56 22.93-13.81 22.94-13.07 22.94-12L22.94-12Q22.94-10.98 22.92-8.81 22.9-6.64 22.9-5.55L22.9-5.55Q22.9-3.55 22.96-2.09L22.96-2.09Q22.96-1.89 22.96-1.72L22.96-1.72Q22.96-0.87 22.78-0.31 22.6 0.26 22.28 0.52 21.96 0.79 21.64 0.88 21.32 0.98 20.9 0.98L20.9 0.98Q20.86 0.98 20.8 0.98 20.75 0.98 20.71 0.98L20.71 0.98Q18.34 0.98 18.17-2.02L18.17-2.02Q18.11-3.04 18.11-4.53L18.11-4.53Q18.11-4.55 17.97-7.78 17.83-11 17.68-14.31 17.54-17.62 17.51-17.77L17.51-17.77Q17.51-17.77 17.6-17.7 17.68-17.62 17.77-17.54L17.77-17.54 17.85-17.45Q17.83-17.45 17.79-17.45L17.79-17.45Q17.22-17.45 16.65-17.06 16.09-16.66 15.72-16.17 15.34-15.68 14.99-14.99 14.64-14.3 14.5-13.95 14.36-13.6 14.24-13.24L14.24-13.24Q14.3-12.15 14.3-10.96L14.3-10.96Q14.3-9.41 14.17-6.78 14.05-4.15 14.05-3.13L14.05-3.13Q14.05-2.36 14.09-1.75L14.09-1.75Q14.11-1.55 14.11-1.38L14.11-1.38Q14.11-0.66 13.91-0.16 13.7 0.34 13.35 0.57 13 0.81 12.67 0.89 12.34 0.98 11.96 0.98L11.96 0.98Q11.94 0.98 11.89 0.98 11.83 0.98 11.79 0.98L11.79 0.98Q10.85 0.98 10.25 0.43 9.64-0.13 9.49-1.7L9.49-1.7Q9.45-2.15 9.45-2.87L9.45-2.87Q9.45-3.96 9.66-6.88 9.87-9.81 9.87-11.66L9.87-11.66Q9.87-12 9.87-12.61 9.87-13.22 9.87-13.49L9.87-13.49Q9.87-15.32 9.81-16.17 9.75-17.02 9.53-17.32L9.53-17.32Q9.45-17.45 9.28-17.45L9.28-17.45 9.32-17.45 9.24-17.45Q8.38-17.45 7.32-16.21 6.26-14.96 5.43-13.05L5.43-13.05Q5.41-12.51 5.41-11.83L5.41-11.83Q5.41-10.64 5.47-8.17L5.47-8.17Q5.47-6.68 5.56-4.38 5.66-2.09 5.66-1.55ZM45.12-17.09L45.12-17.09Q45.29-16.39 45.29-15.83L45.29-15.83Q45.29-14.07 43.54-13.39L43.54-13.39Q42.97-13.15 42.39-13.15L42.39-13.15Q40.73-13.15 40.07-15.13L40.07-15.13Q39.99-15.36 39.85-15.83 39.71-16.3 39.64-16.52 39.56-16.75 39.41-17.1 39.26-17.45 39.09-17.62 38.92-17.79 38.66-17.99 38.39-18.2 38.04-18.27 37.69-18.34 37.22-18.34L37.22-18.34Q36.52-18.34 35.75-18.11 34.99-17.88 34.12-17.24 33.26-16.6 32.57-15.65 31.88-14.71 31.38-13.13 30.88-11.56 30.75-9.6L30.75-9.6Q30.73-9.19 30.73-8.79L30.73-8.79Q30.73-3.47 35.41-3.23L35.41-3.23Q35.65-3.23 35.92-3.23L35.92-3.23Q37.99-3.23 39.25-3.84 40.52-4.45 40.77-5.09L40.77-5.09Q41.63-7.17 43.22-7.17L43.22-7.17Q43.75-7.17 44.35-6.9L44.35-6.9Q45.78-6.28 45.78-4.96L45.78-4.96Q45.78-4.21 45.31-3.28L45.31-3.28Q44.92-2.45 44.14-1.68 43.35-0.92 42.15-0.21 40.94 0.49 39.14 0.93 37.33 1.36 35.2 1.36L35.2 1.36Q35.05 1.36 34.88 1.36L34.88 1.36Q32.73 1.32 30.95 0.52 29.18-0.28 28.03-1.59 26.88-2.89 26.26-4.54 25.64-6.19 25.64-7.98L25.64-7.98Q25.64-8.04 25.64-8.19L25.64-8.19Q25.69-11.13 26.39-13.59 27.09-16.05 28.26-17.76 29.43-19.47 31.03-20.66 32.62-21.86 34.42-22.42 36.22-22.98 38.2-22.98L38.2-22.98Q39.43-22.98 40.6-22.48 41.77-21.98 42.66-21.15 43.54-20.32 44.18-19.27 44.82-18.22 45.12-17.09ZM54.84 10.39L54.84 10.39Q54.84 10.43 54.84 10.49L54.84 10.49Q54.84 11.68 54.16 12.32 53.48 12.96 52.52 12.96L52.52 12.96Q51.35 12.9 50.7 12.23 50.05 11.56 50.01 10.34L50.01 10.34Q49.84 6.96 49.73-0.8 49.63-8.55 49.63-14.9L49.63-14.9Q49.63-15.51 49.63-16.49 49.63-17.47 49.63-17.75L49.63-17.75Q49.63-21.49 50.1-22.39L50.1-22.39Q50.44-23.07 51.11-23.48 51.78-23.9 52.52-23.9L52.52-23.9Q52.61-23.9 52.86-23.88L52.86-23.88Q53.59-23.79 54.16-23.25 54.73-22.71 54.73-22L54.73-22Q54.73-21.81 54.69-21.62L54.69-21.62Q54.54-21.09 54.48-20.39L54.48-20.39Q57.35-22.2 60.31-22.2L60.31-22.2Q62.08-22.2 63.43-21.84 64.78-21.49 65.95-20.62 67.12-19.75 67.9-18.32 68.67-16.9 69.12-14.69 69.57-12.49 69.61-9.53L69.61-9.53Q69.61-9.41 69.61-9.34L69.61-9.34Q69.61-7.92 69.23-6.44 68.84-4.96 68.07-3.58 67.29-2.19 66.21-1.11 65.12-0.02 63.59 0.65 62.06 1.32 60.33 1.36L60.33 1.36Q59.8 1.36 59.35 1.36L59.35 1.36Q56.31 1.36 54.69 0.96L54.69 0.96Q54.71 2.83 54.78 6.15 54.84 9.47 54.84 10.39ZM54.37-15.56L54.37-15.22Q54.37-14.47 54.43-12.25 54.48-10.02 54.53-7.64 54.59-5.26 54.61-3.13L54.61-3.13Q55.44-2.87 57.01-2.87L57.01-2.87Q57.42-2.87 59.8-2.96L59.8-2.96Q60.97-3 61.89-3.65 62.8-4.3 63.34-5.35 63.89-6.41 64.15-7.67 64.42-8.94 64.42-10.34L64.42-10.34Q64.42-10.66 64.42-10.87L64.42-10.87Q64.33-12.58 64.07-13.83 63.8-15.09 63.43-15.84 63.06-16.6 62.5-17.06 61.95-17.51 61.4-17.67 60.84-17.83 60.14-17.83L60.14-17.83Q58.78-17.83 57.19-17.18 55.61-16.54 54.37-15.56L54.37-15.56ZM73.33-3.15L73.33-3.15Q73.14-3.89 73.14-4.51L73.14-4.51Q73.14-6.13 74.46-6.75L74.46-6.75Q75.02-7.02 75.7-7.02L75.7-7.02Q76.53-7.02 77.25-6.55 77.97-6.09 78.38-5.13L78.38-5.13Q78.61-4.55 78.74-4.31 78.87-4.06 79.11-3.73 79.36-3.4 79.65-3.28 79.95-3.15 80.43-3.05 80.91-2.96 81.59-2.96L81.59-2.96Q82.74-2.96 84.35-3.51 85.95-4.06 87.24-5 88.53-5.94 88.64-6.85L88.64-6.85Q88.64-6.9 88.64-6.92L88.64-6.92Q88.64-7.36 88.04-7.74 87.44-8.11 86.36-8.41 85.27-8.7 84.12-8.97 82.97-9.24 81.44-9.6 79.91-9.96 78.82-10.3L78.82-10.3Q76.21-11.15 75.26-12.16 74.31-13.17 74.31-15.07L74.31-15.07Q74.31-18.62 78.34-20.62 82.36-22.62 90.08-22.62L90.08-22.62Q90.42-22.58 90.66-22.39L90.66-22.39Q91.15-21.96 91.54-20.62 91.93-19.28 92.07-18.42 92.21-17.56 92.24-17.17 92.27-16.79 92.27-16.56L92.27-16.56Q92.27-14.77 90.85-14.34L90.85-14.34Q90.44-14.22 90.08-14.22L90.08-14.22Q89.32-14.22 88.7-14.67 88.08-15.13 87.87-15.66L87.87-15.66Q87.27-16.98 86.93-18.22L86.93-18.22Q85.12-18.2 83.42-17.82 81.72-17.45 80.54-16.75 79.36-16.05 79.36-15.22L79.36-15.22Q79.36-15.11 79.38-15.07L79.38-15.07Q79.38-15.02 79.4-14.98L79.4-14.98Q79.78-14.24 83.68-13.49L83.68-13.49Q85.04-13.22 86.15-12.95 87.25-12.68 88.45-12.29 89.66-11.9 90.55-11.41 91.44-10.92 92.18-10.32 92.91-9.73 93.3-8.94 93.68-8.15 93.68-7.24L93.68-7.24Q93.68-6.96 93.64-6.64L93.64-6.64Q93.32-4.11 91.51-2.22 89.7-0.34 86.99 0.6 84.27 1.53 81.04 1.53L81.04 1.53Q79.76 1.53 78.56 1.26 77.36 0.98 76.28 0.44 75.21-0.11 74.43-1.03 73.65-1.96 73.33-3.15ZM114.36 0.34L114.36 0.34Q112.09 1.21 108.96 1.21L108.96 1.21Q108.64 1.21 108.41 1.21L108.41 1.21Q106.7 1.15 105.21 0.63 103.72 0.11 102.59-0.86 101.45-1.83 100.76-3.32 100.06-4.81 100.02-6.66L100.02-6.66Q99.98-7.81 99.98-8.73L99.98-8.73Q99.98-11.39 100.4-16.94L100.4-16.94 98.64-16.94Q97.7-16.94 97.08-17.41 96.47-17.88 96.47-19L96.47-19Q96.47-19.05 96.47-19.1 96.47-19.15 96.47-19.2L96.47-19.2Q96.49-21.41 98.68-21.41L98.68-21.41Q100.08-21.41 100.98-21.34L100.98-21.34 100.62-21.03Q100.68-21.98 100.68-22.96L100.68-22.96Q100.68-25.13 100.45-27.56L100.45-27.56Q100.43-27.69 100.43-27.77L100.43-27.77Q100.43-28.52 100.94-29.2 101.45-29.88 102.32-29.88L102.32-29.88Q103.19-29.88 104.21-29.26 105.23-28.64 105.36-27.86L105.36-27.86Q105.45-26.98 105.45-25.32L105.45-25.32Q105.45-24.05 105.36-21.37L105.36-21.37Q106.7-21.34 108.67-21.28 110.64-21.22 111.85-21.19 113.07-21.15 113.56-21.15L113.56-21.15Q114.49-21.15 115.13-20.65 115.77-20.15 115.77-18.96L115.77-18.96Q115.64-17.07 113.56-17.07L113.56-17.07Q112.39-17.07 105.21-17.15L105.21-17.15Q104.87-9.56 104.87-8.15L104.87-8.15Q104.87-7.55 104.89-7.19L104.89-7.19Q105-5.43 106.1-4.34 107.19-3.26 109.09-3.19L109.09-3.19Q109.26-3.19 109.45-3.19L109.45-3.19Q111.92-3.19 114.13-4.15L114.13-4.15Q114.45-4.3 114.79-4.3L114.79-4.3Q115.36-4.3 115.84-3.87 116.32-3.45 116.49-2.6L116.49-2.6Q116.53-2.4 116.53-2.19L116.53-2.19Q116.53-1.34 115.89-0.66 115.24 0.02 114.36 0.34ZM129.71 1.17L129.71 1.17Q127.52 1.13 125.69 0.17 123.86-0.79 122.65-2.37 121.45-3.96 120.79-5.99 120.13-8.02 120.13-10.24L120.13-10.24Q120.13-10.26 120.13-10.34 120.13-10.43 120.13-10.45L120.13-10.45Q120.13-13.07 120.84-15.3 121.56-17.54 122.9-19.22 124.24-20.9 126.32-21.84 128.41-22.79 131.01-22.79L131.01-22.79Q132.56-22.79 133.95-22.4 135.35-22 136.62-21.12 137.9-20.24 138.83-18.91 139.75-17.58 140.31-15.6 140.86-13.62 140.86-11.17L140.86-11.17Q140.86-10.45 140.82-9.75L140.82-9.75Q140.65-7.13 139.95-5.15 139.26-3.17 137.98-1.73 136.69-0.3 134.68 0.44 132.67 1.17 129.94 1.17L129.94 1.17Q129.79 1.17 129.71 1.17ZM130.64-3.19L130.64-3.19Q130.79-3.19 130.9-3.19L130.9-3.19Q132.43-3.19 133.52-4.15 134.6-5.11 135.13-6.72 135.67-8.34 135.75-10.51L135.75-10.51Q135.77-10.9 135.77-11.32L135.77-11.32Q135.77-18.71 130.41-18.71L130.41-18.71Q129.41-18.71 128.61-18.33 127.81-17.96 127.29-17.29 126.77-16.62 126.39-15.83 126-15.05 125.78-14.07 125.56-13.09 125.45-12.27 125.35-11.45 125.28-10.53L125.28-10.53Q125.28-10.32 125.28-9.83L125.28-9.83Q125.28-8.64 125.42-7.71 125.56-6.79 125.92-5.94 126.28-5.09 126.88-4.52 127.47-3.96 128.43-3.61 129.39-3.26 130.64-3.19ZM150.67-1.26L150.67-1.26Q150.67-1.21 150.67-1.15L150.67-1.15Q150.67-0.23 150.14 0.39 149.61 1.02 148.33 1.02L148.33 1.02Q148.22 1.02 148.12 1.02L148.12 1.02Q147.09 0.98 146.5 0.47 145.9-0.04 145.8-1.23L145.8-1.23Q145.8-1.3 145.54-3.29 145.29-5.28 145.24-6.53L145.24-6.53Q145.2-7.24 145.2-8.11L145.2-8.11Q145.2-10.41 145.51-14.33 145.82-18.26 145.84-19.66L145.84-19.66Q145.9-21.07 146.71-21.75 147.52-22.43 148.65-22.43L148.65-22.43Q149.65-22.43 150.3-21.82 150.95-21.22 150.95-19.86L150.95-19.86Q150.95-19.73 150.95-19.58L150.95-19.58 150.8-18.11Q152.33-19.75 155.19-20.91 158.05-22.07 161.63-22.07L161.63-22.07Q161.93-22.07 162.23-22.05L162.23-22.05 162.27-22.05 162.29-22.05Q162.82-21.92 163.2-21.29 163.59-20.66 163.78-19.79 163.97-18.92 164.04-18.16 164.12-17.41 164.12-16.79L164.12-16.79Q164.12-15.71 163.95-15.05L163.95-15.05Q163.63-13.47 161.88-13.02L161.88-13.02Q161.69-12.98 161.46-12.98L161.46-12.98Q160.65-12.98 160.01-13.55 159.37-14.11 159.27-14.88L159.27-14.88Q159.2-15.32 159.18-15.96 159.16-16.6 159.1-17.02 159.03-17.45 158.8-17.77L158.8-17.77Q157.48-17.73 156.18-17.22 154.88-16.71 153.93-15.97 152.97-15.24 152.16-14.35 151.35-13.47 150.87-12.75 150.39-12.02 150.2-11.51L150.2-11.51Q150.14-10.02 150.14-9.21L150.14-9.21Q150.14-9.04 150.15-8.71 150.16-8.38 150.16-8.24L150.16-8.24Q150.16-6.68 150.4-4.13 150.65-1.57 150.67-1.26ZM187.91-2.75L187.91-2.75Q187.25-1.83 186.51-1.17 185.76-0.51 184.63 0.06 183.51 0.64 181.89 0.93 180.27 1.21 178.14 1.21L178.14 1.21Q177.91 1.21 177.65 1.21L177.65 1.21Q173.23 1.15 170.73-1.85 168.23-4.85 168.23-10.09L168.23-10.09Q168.23-10.26 168.25-10.36L168.25-10.36Q168.29-13.26 169.18-15.61 170.08-17.96 171.63-19.5 173.18-21.05 175.26-21.88 177.33-22.71 179.76-22.71L179.76-22.71Q181.21-22.71 182.88-21.95 184.55-21.2 186-19.81 187.44-18.43 188.02-16.81L188.02-16.81 188.02-16.79 188.02-16.77Q188.08-16.51 188.08-16.26L188.08-16.26Q188.08-15.17 187.27-14.03 186.46-12.9 185.61-12.28L185.61-12.28Q184.8-11.7 183.67-11.13 182.53-10.56 180.9-9.93 179.27-9.3 178.38-8.97 177.48-8.64 175.5-7.97 173.53-7.3 173.33-7.24L173.33-7.24Q173.72-5.26 174.81-4.17 175.91-3.09 177.91-3.02L177.91-3.02Q178.06-3 178.21-3L178.21-3Q179.27-3 180.31-3.33 181.36-3.66 182.07-4.11 182.78-4.55 183.22-4.91 183.66-5.26 183.78-5.45L183.78-5.45Q185.02-7.09 186.27-7.09L186.27-7.09Q186.95-7.09 187.61-6.64L187.61-6.64Q188.72-5.87 188.72-4.77L188.72-4.77Q188.72-3.85 187.91-2.75ZM178.85-18.62L178.85-18.62Q178.16-18.62 177.47-18.4 176.78-18.17 176.07-17.64 175.36-17.11 174.77-16.33 174.19-15.56 173.76-14.36 173.33-13.17 173.21-11.7L173.21-11.7Q180.68-13.6 182.97-15.49L182.97-15.49Q182.06-17.24 181.07-17.93 180.08-18.62 178.85-18.62Z" transform="translate(-0.6800000071525574, 29.8799991607666)"></path></g> <!----> <!----> <!----> <!----> <!----> <!----> <!----></g></g> <!----></g></g><defs v-gra="od"></defs></svg>
